<mxfile host="app.diagrams.net" modified="2022-03-26T12:40:01.277Z" agent="5.0 (Windows NT 10.0; Win64; x64) AppleWebKit/537.36 (KHTML, like Gecko) Chrome/99.0.4844.74 Safari/537.36 Edg/99.0.1150.46" etag="gBdZWL3jQZPlvR7oIAve" version="15.2.9" type="github">
  <diagram id="C5RBs43oDa-KdzZeNtuy" name="Page-1">
    <mxGraphModel dx="1747" dy="567" grid="1" gridSize="10" guides="1" tooltips="1" connect="1" arrows="1" fold="1" page="1" pageScale="1" pageWidth="827" pageHeight="1169" math="0" shadow="0">
      <root>
        <mxCell id="WIyWlLk6GJQsqaUBKTNV-0" />
        <mxCell id="WIyWlLk6GJQsqaUBKTNV-1" parent="WIyWlLk6GJQsqaUBKTNV-0" />
        <mxCell id="ESs07MtLAQigelzqgCKP-7" style="edgeStyle=orthogonalEdgeStyle;rounded=0;orthogonalLoop=1;jettySize=auto;html=1;exitX=0.5;exitY=1;exitDx=0;exitDy=0;entryX=0.5;entryY=0;entryDx=0;entryDy=0;" edge="1" parent="WIyWlLk6GJQsqaUBKTNV-1" source="WIyWlLk6GJQsqaUBKTNV-3" target="ESs07MtLAQigelzqgCKP-2">
          <mxGeometry relative="1" as="geometry" />
        </mxCell>
        <mxCell id="WIyWlLk6GJQsqaUBKTNV-3" value="开始" style="rounded=1;whiteSpace=wrap;html=1;fontSize=12;glass=0;strokeWidth=1;shadow=0;" parent="WIyWlLk6GJQsqaUBKTNV-1" vertex="1">
          <mxGeometry x="160" y="80" width="120" height="40" as="geometry" />
        </mxCell>
        <mxCell id="ESs07MtLAQigelzqgCKP-30" style="edgeStyle=orthogonalEdgeStyle;rounded=0;orthogonalLoop=1;jettySize=auto;html=1;exitX=0.5;exitY=1;exitDx=0;exitDy=0;entryX=0.5;entryY=0;entryDx=0;entryDy=0;" edge="1" parent="WIyWlLk6GJQsqaUBKTNV-1" source="ESs07MtLAQigelzqgCKP-2" target="ESs07MtLAQigelzqgCKP-27">
          <mxGeometry relative="1" as="geometry" />
        </mxCell>
        <mxCell id="ESs07MtLAQigelzqgCKP-40" style="edgeStyle=orthogonalEdgeStyle;rounded=0;orthogonalLoop=1;jettySize=auto;html=1;exitX=0;exitY=0.5;exitDx=0;exitDy=0;entryX=0.5;entryY=0;entryDx=0;entryDy=0;" edge="1" parent="WIyWlLk6GJQsqaUBKTNV-1" source="ESs07MtLAQigelzqgCKP-2" target="ESs07MtLAQigelzqgCKP-10">
          <mxGeometry relative="1" as="geometry" />
        </mxCell>
        <mxCell id="ESs07MtLAQigelzqgCKP-2" value="Validate(year,month,day)" style="rhombus;whiteSpace=wrap;html=1;" vertex="1" parent="WIyWlLk6GJQsqaUBKTNV-1">
          <mxGeometry x="130" y="150" width="180" height="90" as="geometry" />
        </mxCell>
        <mxCell id="ESs07MtLAQigelzqgCKP-9" value="结束" style="rounded=1;whiteSpace=wrap;html=1;fontSize=12;glass=0;strokeWidth=1;shadow=0;" vertex="1" parent="WIyWlLk6GJQsqaUBKTNV-1">
          <mxGeometry x="159" y="990" width="120" height="40" as="geometry" />
        </mxCell>
        <mxCell id="ESs07MtLAQigelzqgCKP-47" style="edgeStyle=orthogonalEdgeStyle;rounded=0;orthogonalLoop=1;jettySize=auto;html=1;exitX=0.5;exitY=1;exitDx=0;exitDy=0;entryX=0;entryY=0.5;entryDx=0;entryDy=0;" edge="1" parent="WIyWlLk6GJQsqaUBKTNV-1" source="ESs07MtLAQigelzqgCKP-10" target="ESs07MtLAQigelzqgCKP-9">
          <mxGeometry relative="1" as="geometry" />
        </mxCell>
        <mxCell id="ESs07MtLAQigelzqgCKP-10" value="日期有误" style="shape=parallelogram;perimeter=parallelogramPerimeter;whiteSpace=wrap;html=1;fixedSize=1;" vertex="1" parent="WIyWlLk6GJQsqaUBKTNV-1">
          <mxGeometry x="-100" y="555" width="120" height="60" as="geometry" />
        </mxCell>
        <mxCell id="ESs07MtLAQigelzqgCKP-31" style="edgeStyle=orthogonalEdgeStyle;rounded=0;orthogonalLoop=1;jettySize=auto;html=1;exitX=0.5;exitY=1;exitDx=0;exitDy=0;entryX=0.5;entryY=0;entryDx=0;entryDy=0;" edge="1" parent="WIyWlLk6GJQsqaUBKTNV-1" source="ESs07MtLAQigelzqgCKP-27" target="ESs07MtLAQigelzqgCKP-28">
          <mxGeometry relative="1" as="geometry" />
        </mxCell>
        <mxCell id="ESs07MtLAQigelzqgCKP-32" style="edgeStyle=orthogonalEdgeStyle;rounded=0;orthogonalLoop=1;jettySize=auto;html=1;exitX=1;exitY=0.5;exitDx=0;exitDy=0;" edge="1" parent="WIyWlLk6GJQsqaUBKTNV-1" source="ESs07MtLAQigelzqgCKP-27" target="ESs07MtLAQigelzqgCKP-29">
          <mxGeometry relative="1" as="geometry" />
        </mxCell>
        <mxCell id="ESs07MtLAQigelzqgCKP-27" value="month&amp;gt;=3" style="rhombus;whiteSpace=wrap;html=1;" vertex="1" parent="WIyWlLk6GJQsqaUBKTNV-1">
          <mxGeometry x="162.5" y="280" width="115" height="50" as="geometry" />
        </mxCell>
        <mxCell id="ESs07MtLAQigelzqgCKP-34" style="edgeStyle=orthogonalEdgeStyle;rounded=0;orthogonalLoop=1;jettySize=auto;html=1;exitX=0.5;exitY=1;exitDx=0;exitDy=0;entryX=0.5;entryY=0;entryDx=0;entryDy=0;" edge="1" parent="WIyWlLk6GJQsqaUBKTNV-1" source="ESs07MtLAQigelzqgCKP-28" target="ESs07MtLAQigelzqgCKP-33">
          <mxGeometry relative="1" as="geometry" />
        </mxCell>
        <mxCell id="ESs07MtLAQigelzqgCKP-28" value="m = month &lt;br&gt;y = year % 100 &lt;br&gt;c = year / 100" style="rounded=0;whiteSpace=wrap;html=1;" vertex="1" parent="WIyWlLk6GJQsqaUBKTNV-1">
          <mxGeometry x="160" y="380" width="120" height="60" as="geometry" />
        </mxCell>
        <mxCell id="ESs07MtLAQigelzqgCKP-35" style="edgeStyle=orthogonalEdgeStyle;rounded=0;orthogonalLoop=1;jettySize=auto;html=1;exitX=0.5;exitY=1;exitDx=0;exitDy=0;entryX=1;entryY=0.5;entryDx=0;entryDy=0;" edge="1" parent="WIyWlLk6GJQsqaUBKTNV-1" source="ESs07MtLAQigelzqgCKP-29" target="ESs07MtLAQigelzqgCKP-33">
          <mxGeometry relative="1" as="geometry" />
        </mxCell>
        <mxCell id="ESs07MtLAQigelzqgCKP-29" value="m = month + 12 &lt;br&gt;y = (year - 1) % 100 &lt;br&gt;c = (year - 1) / 100" style="rounded=0;whiteSpace=wrap;html=1;" vertex="1" parent="WIyWlLk6GJQsqaUBKTNV-1">
          <mxGeometry x="370" y="380" width="120" height="60" as="geometry" />
        </mxCell>
        <mxCell id="ESs07MtLAQigelzqgCKP-41" style="edgeStyle=orthogonalEdgeStyle;rounded=0;orthogonalLoop=1;jettySize=auto;html=1;exitX=0.5;exitY=1;exitDx=0;exitDy=0;entryX=0.5;entryY=0;entryDx=0;entryDy=0;" edge="1" parent="WIyWlLk6GJQsqaUBKTNV-1" source="ESs07MtLAQigelzqgCKP-33" target="ESs07MtLAQigelzqgCKP-36">
          <mxGeometry relative="1" as="geometry" />
        </mxCell>
        <mxCell id="ESs07MtLAQigelzqgCKP-33" value="week := y + (y / 4) + (c / 4) - 2*c + ((26 * (m + 1)) / 10) + day - 1" style="rounded=0;whiteSpace=wrap;html=1;" vertex="1" parent="WIyWlLk6GJQsqaUBKTNV-1">
          <mxGeometry x="127.5" y="500" width="185" height="55" as="geometry" />
        </mxCell>
        <mxCell id="ESs07MtLAQigelzqgCKP-42" style="edgeStyle=orthogonalEdgeStyle;rounded=0;orthogonalLoop=1;jettySize=auto;html=1;exitX=0.5;exitY=1;exitDx=0;exitDy=0;entryX=0.5;entryY=0;entryDx=0;entryDy=0;" edge="1" parent="WIyWlLk6GJQsqaUBKTNV-1" source="ESs07MtLAQigelzqgCKP-36" target="ESs07MtLAQigelzqgCKP-37">
          <mxGeometry relative="1" as="geometry" />
        </mxCell>
        <mxCell id="ESs07MtLAQigelzqgCKP-43" style="edgeStyle=orthogonalEdgeStyle;rounded=0;orthogonalLoop=1;jettySize=auto;html=1;exitX=1;exitY=0.5;exitDx=0;exitDy=0;entryX=0.5;entryY=0;entryDx=0;entryDy=0;" edge="1" parent="WIyWlLk6GJQsqaUBKTNV-1" source="ESs07MtLAQigelzqgCKP-36" target="ESs07MtLAQigelzqgCKP-39">
          <mxGeometry relative="1" as="geometry" />
        </mxCell>
        <mxCell id="ESs07MtLAQigelzqgCKP-36" value="week&amp;lt;0" style="rhombus;whiteSpace=wrap;html=1;" vertex="1" parent="WIyWlLk6GJQsqaUBKTNV-1">
          <mxGeometry x="160.5" y="630" width="117" height="50" as="geometry" />
        </mxCell>
        <mxCell id="ESs07MtLAQigelzqgCKP-44" style="edgeStyle=orthogonalEdgeStyle;rounded=0;orthogonalLoop=1;jettySize=auto;html=1;exitX=0.5;exitY=1;exitDx=0;exitDy=0;entryX=0.5;entryY=0;entryDx=0;entryDy=0;" edge="1" parent="WIyWlLk6GJQsqaUBKTNV-1" source="ESs07MtLAQigelzqgCKP-37" target="ESs07MtLAQigelzqgCKP-38">
          <mxGeometry relative="1" as="geometry" />
        </mxCell>
        <mxCell id="ESs07MtLAQigelzqgCKP-37" value="week = 7 - (-week)%7" style="rounded=0;whiteSpace=wrap;html=1;" vertex="1" parent="WIyWlLk6GJQsqaUBKTNV-1">
          <mxGeometry x="151.5" y="740" width="135" height="40" as="geometry" />
        </mxCell>
        <mxCell id="ESs07MtLAQigelzqgCKP-46" style="edgeStyle=orthogonalEdgeStyle;rounded=0;orthogonalLoop=1;jettySize=auto;html=1;exitX=0.5;exitY=1;exitDx=0;exitDy=0;entryX=0.5;entryY=0;entryDx=0;entryDy=0;" edge="1" parent="WIyWlLk6GJQsqaUBKTNV-1" source="ESs07MtLAQigelzqgCKP-38" target="ESs07MtLAQigelzqgCKP-9">
          <mxGeometry relative="1" as="geometry" />
        </mxCell>
        <mxCell id="ESs07MtLAQigelzqgCKP-38" value="输出结果" style="shape=parallelogram;perimeter=parallelogramPerimeter;whiteSpace=wrap;html=1;fixedSize=1;" vertex="1" parent="WIyWlLk6GJQsqaUBKTNV-1">
          <mxGeometry x="159" y="840" width="120" height="60" as="geometry" />
        </mxCell>
        <mxCell id="ESs07MtLAQigelzqgCKP-45" style="edgeStyle=orthogonalEdgeStyle;rounded=0;orthogonalLoop=1;jettySize=auto;html=1;exitX=0.5;exitY=1;exitDx=0;exitDy=0;" edge="1" parent="WIyWlLk6GJQsqaUBKTNV-1" source="ESs07MtLAQigelzqgCKP-39">
          <mxGeometry relative="1" as="geometry">
            <mxPoint x="220" y="840" as="targetPoint" />
          </mxGeometry>
        </mxCell>
        <mxCell id="ESs07MtLAQigelzqgCKP-39" value="week = week % 7" style="rounded=0;whiteSpace=wrap;html=1;" vertex="1" parent="WIyWlLk6GJQsqaUBKTNV-1">
          <mxGeometry x="375" y="740" width="110" height="40" as="geometry" />
        </mxCell>
        <mxCell id="ESs07MtLAQigelzqgCKP-48" value="O" style="text;html=1;align=center;verticalAlign=middle;resizable=0;points=[];autosize=1;strokeColor=none;fillColor=none;" vertex="1" parent="WIyWlLk6GJQsqaUBKTNV-1">
          <mxGeometry x="225" y="120" width="30" height="20" as="geometry" />
        </mxCell>
        <mxCell id="ESs07MtLAQigelzqgCKP-49" value="YES" style="text;html=1;align=center;verticalAlign=middle;resizable=0;points=[];autosize=1;strokeColor=none;fillColor=none;" vertex="1" parent="WIyWlLk6GJQsqaUBKTNV-1">
          <mxGeometry x="220" y="250" width="40" height="20" as="geometry" />
        </mxCell>
        <mxCell id="ESs07MtLAQigelzqgCKP-50" value="NO" style="text;html=1;align=center;verticalAlign=middle;resizable=0;points=[];autosize=1;strokeColor=none;fillColor=none;" vertex="1" parent="WIyWlLk6GJQsqaUBKTNV-1">
          <mxGeometry x="15" y="170" width="30" height="20" as="geometry" />
        </mxCell>
        <mxCell id="ESs07MtLAQigelzqgCKP-51" value="A" style="text;html=1;align=center;verticalAlign=middle;resizable=0;points=[];autosize=1;strokeColor=none;fillColor=none;" vertex="1" parent="WIyWlLk6GJQsqaUBKTNV-1">
          <mxGeometry x="20" y="200" width="20" height="20" as="geometry" />
        </mxCell>
        <mxCell id="ESs07MtLAQigelzqgCKP-52" value="B" style="text;html=1;align=center;verticalAlign=middle;resizable=0;points=[];autosize=1;strokeColor=none;fillColor=none;" vertex="1" parent="WIyWlLk6GJQsqaUBKTNV-1">
          <mxGeometry x="200" y="240" width="20" height="20" as="geometry" />
        </mxCell>
        <mxCell id="ESs07MtLAQigelzqgCKP-53" value="YES" style="text;html=1;align=center;verticalAlign=middle;resizable=0;points=[];autosize=1;strokeColor=none;fillColor=none;" vertex="1" parent="WIyWlLk6GJQsqaUBKTNV-1">
          <mxGeometry x="220" y="340" width="40" height="20" as="geometry" />
        </mxCell>
        <mxCell id="ESs07MtLAQigelzqgCKP-54" value="C" style="text;html=1;align=center;verticalAlign=middle;resizable=0;points=[];autosize=1;strokeColor=none;fillColor=none;" vertex="1" parent="WIyWlLk6GJQsqaUBKTNV-1">
          <mxGeometry x="200" y="340" width="20" height="20" as="geometry" />
        </mxCell>
        <mxCell id="ESs07MtLAQigelzqgCKP-55" value="NO" style="text;html=1;align=center;verticalAlign=middle;resizable=0;points=[];autosize=1;strokeColor=none;fillColor=none;" vertex="1" parent="WIyWlLk6GJQsqaUBKTNV-1">
          <mxGeometry x="325" y="280" width="30" height="20" as="geometry" />
        </mxCell>
        <mxCell id="ESs07MtLAQigelzqgCKP-56" value="D" style="text;html=1;align=center;verticalAlign=middle;resizable=0;points=[];autosize=1;strokeColor=none;fillColor=none;" vertex="1" parent="WIyWlLk6GJQsqaUBKTNV-1">
          <mxGeometry x="330" y="310" width="20" height="20" as="geometry" />
        </mxCell>
        <mxCell id="ESs07MtLAQigelzqgCKP-59" value="YES" style="text;html=1;align=center;verticalAlign=middle;resizable=0;points=[];autosize=1;strokeColor=none;fillColor=none;" vertex="1" parent="WIyWlLk6GJQsqaUBKTNV-1">
          <mxGeometry x="220" y="690" width="40" height="20" as="geometry" />
        </mxCell>
        <mxCell id="ESs07MtLAQigelzqgCKP-60" value="E" style="text;html=1;align=center;verticalAlign=middle;resizable=0;points=[];autosize=1;strokeColor=none;fillColor=none;" vertex="1" parent="WIyWlLk6GJQsqaUBKTNV-1">
          <mxGeometry x="200" y="690" width="20" height="20" as="geometry" />
        </mxCell>
        <mxCell id="ESs07MtLAQigelzqgCKP-61" value="NO" style="text;html=1;align=center;verticalAlign=middle;resizable=0;points=[];autosize=1;strokeColor=none;fillColor=none;" vertex="1" parent="WIyWlLk6GJQsqaUBKTNV-1">
          <mxGeometry x="335" y="630" width="30" height="20" as="geometry" />
        </mxCell>
        <mxCell id="ESs07MtLAQigelzqgCKP-62" value="F" style="text;html=1;align=center;verticalAlign=middle;resizable=0;points=[];autosize=1;strokeColor=none;fillColor=none;" vertex="1" parent="WIyWlLk6GJQsqaUBKTNV-1">
          <mxGeometry x="340" y="660" width="20" height="20" as="geometry" />
        </mxCell>
      </root>
    </mxGraphModel>
  </diagram>
</mxfile>
